<svg width="16" height="16" viewBox="0 0 16 16" fill="none" xmlns="http://www.w3.org/2000/svg">
<g clip-path="url(#clip0_595_1093)">
<path d="M5.02004 14.32C2.84004 13.2933 1.28004 11.1733 1.04004 8.66667H0.0400391C0.380039 12.7733 3.81337 16 8.00671 16L8.4467 15.98L5.9067 13.44L5.02004 14.32ZM5.61337 9.97333C5.48671 9.97333 5.36671 9.95333 5.26671 9.92C5.16004 9.88 5.07337 9.83333 5.00004 9.76C4.92671 9.69333 4.86671 9.61333 4.82671 9.51333C4.78671 9.42 4.76671 9.31333 4.76671 9.2H3.90004C3.90004 9.44 3.94671 9.65333 4.04004 9.83333C4.13337 10.0133 4.26004 10.1667 4.41337 10.2933C4.57337 10.4133 4.75337 10.5067 4.96004 10.5667C5.16004 10.6333 5.37337 10.6667 5.60004 10.6667C5.8467 10.6667 6.08004 10.6333 6.28671 10.5667C6.50004 10.5 6.68671 10.4 6.84004 10.2733C6.99337 10.1467 7.12004 9.98667 7.20671 9.79333C7.29337 9.6 7.34004 9.38667 7.34004 9.14667C7.34004 9.02 7.3267 8.89333 7.29337 8.77333C7.26004 8.65333 7.21337 8.54 7.14004 8.43333C7.07337 8.32667 6.98004 8.23333 6.87337 8.14667C6.76004 8.06 6.6267 7.99333 6.4667 7.94C6.60004 7.88 6.71337 7.80667 6.81337 7.72C6.91337 7.63333 6.99337 7.54 7.06004 7.44C7.12671 7.34 7.17337 7.24 7.20671 7.13333C7.24004 7.02667 7.25337 6.92 7.25337 6.81333C7.25337 6.57333 7.21337 6.36 7.13337 6.17333C7.05337 5.98667 6.94004 5.83333 6.79337 5.71333C6.66004 5.58667 6.48004 5.49333 6.28004 5.42667C6.07337 5.36667 5.8467 5.33333 5.60004 5.33333C5.36004 5.33333 5.14004 5.36667 4.93337 5.44C4.73337 5.51333 4.55337 5.61333 4.40671 5.74C4.26671 5.86667 4.15337 6.01333 4.06671 6.18667C3.98671 6.36 3.94671 6.54667 3.94671 6.75333H4.81337C4.81337 6.64 4.83337 6.54 4.87337 6.45333C4.91337 6.36667 4.96671 6.28667 5.04004 6.22667C5.11337 6.16667 5.19337 6.11333 5.29337 6.08C5.39337 6.04667 5.49337 6.02667 5.61337 6.02667C5.88004 6.02667 6.08004 6.09333 6.20671 6.23333C6.33337 6.36667 6.40004 6.56 6.40004 6.80667C6.40004 6.92667 6.38004 7.03333 6.34671 7.13333C6.31337 7.23333 6.25337 7.31333 6.18004 7.38C6.10671 7.44667 6.01337 7.5 5.9067 7.54C5.80004 7.58 5.66671 7.6 5.52004 7.6H5.00671V8.28667H5.52004C5.66671 8.28667 5.80004 8.3 5.92004 8.33333C6.04004 8.36667 6.14004 8.42 6.22004 8.48667C6.30004 8.56 6.3667 8.64667 6.41337 8.75333C6.46004 8.86 6.48004 8.98667 6.48004 9.13333C6.48004 9.40667 6.40004 9.61333 6.24671 9.75333C6.09337 9.90667 5.88004 9.97333 5.61337 9.97333ZM11.3134 6.02667C11.1 5.80667 10.8467 5.63333 10.5534 5.51333C10.26 5.39333 9.93337 5.33333 9.57337 5.33333H8.00004V10.6667H9.53337C9.90004 10.6667 10.24 10.6067 10.54 10.4867C10.84 10.3667 11.1 10.2 11.3134 9.98C11.5267 9.76 11.6934 9.49333 11.8067 9.18667C11.92 8.87333 11.98 8.52667 11.98 8.14V7.87333C11.98 7.48667 11.92 7.14 11.8067 6.82667C11.6934 6.51333 11.5267 6.24667 11.3134 6.02667ZM11.0534 8.13333C11.0534 8.41333 11.02 8.66 10.96 8.88667C10.8934 9.10667 10.8 9.3 10.6734 9.45333C10.5467 9.60667 10.3867 9.72667 10.2 9.80667C10.0067 9.88667 9.78671 9.92667 9.54004 9.92667H8.93337V6.08H9.58004C10.06 6.08 10.4267 6.23333 10.6734 6.54C10.9267 6.84667 11.0534 7.28667 11.0534 7.86667V8.13333ZM8.00671 0L7.56671 0.02L10.1067 2.56L10.9934 1.67333C13.1734 2.70667 14.7334 4.82 14.9667 7.32667H15.9667C15.6334 3.22667 12.2 0 8.00671 0Z" fill="#0D1A26"/>
</g>
<defs>
<clipPath id="clip0_595_1093">
<rect width="16" height="16" fill="white"/>
</clipPath>
</defs>
</svg>
