<svg width="16" height="17" viewBox="0 0 16 17" fill="none" xmlns="http://www.w3.org/2000/svg">
<g clip-path="url(#clip0_567_62)">
<path d="M5.02004 14.82C2.84004 13.7933 1.28004 11.6733 1.04004 9.16667H0.0400391C0.380039 13.2733 3.81337 16.5 8.00671 16.5L8.4467 16.48L5.9067 13.94L5.02004 14.82ZM5.61337 10.4733C5.48671 10.4733 5.36671 10.4533 5.26671 10.42C5.16004 10.38 5.07337 10.3333 5.00004 10.26C4.92671 10.1933 4.86671 10.1133 4.82671 10.0133C4.78671 9.92 4.76671 9.81333 4.76671 9.7H3.90004C3.90004 9.94 3.94671 10.1533 4.04004 10.3333C4.13337 10.5133 4.26004 10.6667 4.41337 10.7933C4.57337 10.9133 4.75337 11.0067 4.96004 11.0667C5.16004 11.1333 5.37337 11.1667 5.60004 11.1667C5.8467 11.1667 6.08004 11.1333 6.28671 11.0667C6.50004 11 6.68671 10.9 6.84004 10.7733C6.99337 10.6467 7.12004 10.4867 7.20671 10.2933C7.29337 10.1 7.34004 9.88667 7.34004 9.64667C7.34004 9.52 7.3267 9.39333 7.29337 9.27333C7.26004 9.15333 7.21337 9.04 7.14004 8.93333C7.07337 8.82667 6.98004 8.73333 6.87337 8.64667C6.76004 8.56 6.6267 8.49333 6.4667 8.44C6.60004 8.38 6.71337 8.30667 6.81337 8.22C6.91337 8.13333 6.99337 8.04 7.06004 7.94C7.12671 7.84 7.17337 7.74 7.20671 7.63333C7.24004 7.52667 7.25337 7.42 7.25337 7.31333C7.25337 7.07333 7.21337 6.86 7.13337 6.67333C7.05337 6.48667 6.94004 6.33333 6.79337 6.21333C6.66004 6.08667 6.48004 5.99333 6.28004 5.92667C6.07337 5.86667 5.8467 5.83333 5.60004 5.83333C5.36004 5.83333 5.14004 5.86667 4.93337 5.94C4.73337 6.01333 4.55337 6.11333 4.40671 6.24C4.26671 6.36667 4.15337 6.51333 4.06671 6.68667C3.98671 6.86 3.94671 7.04667 3.94671 7.25333H4.81337C4.81337 7.14 4.83337 7.04 4.87337 6.95333C4.91337 6.86667 4.96671 6.78667 5.04004 6.72667C5.11337 6.66667 5.19337 6.61333 5.29337 6.58C5.39337 6.54667 5.49337 6.52667 5.61337 6.52667C5.88004 6.52667 6.08004 6.59333 6.20671 6.73333C6.33337 6.86667 6.40004 7.06 6.40004 7.30667C6.40004 7.42667 6.38004 7.53333 6.34671 7.63333C6.31337 7.73333 6.25337 7.81333 6.18004 7.88C6.10671 7.94667 6.01337 8 5.9067 8.04C5.80004 8.08 5.66671 8.1 5.52004 8.1H5.00671V8.78667H5.52004C5.66671 8.78667 5.80004 8.8 5.92004 8.83333C6.04004 8.86667 6.14004 8.92 6.22004 8.98667C6.30004 9.06 6.3667 9.14667 6.41337 9.25333C6.46004 9.36 6.48004 9.48667 6.48004 9.63333C6.48004 9.90667 6.40004 10.1133 6.24671 10.2533C6.09337 10.4067 5.88004 10.4733 5.61337 10.4733ZM11.3134 6.52667C11.1 6.30667 10.8467 6.13333 10.5534 6.01333C10.26 5.89333 9.93337 5.83333 9.57337 5.83333H8.00004V11.1667H9.53337C9.90004 11.1667 10.24 11.1067 10.54 10.9867C10.84 10.8667 11.1 10.7 11.3134 10.48C11.5267 10.26 11.6934 9.99333 11.8067 9.68667C11.92 9.37333 11.98 9.02667 11.98 8.64V8.37333C11.98 7.98667 11.92 7.64 11.8067 7.32667C11.6934 7.01333 11.5267 6.74667 11.3134 6.52667ZM11.0534 8.63333C11.0534 8.91333 11.02 9.16 10.96 9.38667C10.8934 9.60667 10.8 9.8 10.6734 9.95333C10.5467 10.1067 10.3867 10.2267 10.2 10.3067C10.0067 10.3867 9.78671 10.4267 9.54004 10.4267H8.93337V6.58H9.58004C10.06 6.58 10.4267 6.73333 10.6734 7.04C10.9267 7.34667 11.0534 7.78667 11.0534 8.36667V8.63333ZM8.00671 0.5L7.56671 0.52L10.1067 3.06L10.9934 2.17333C13.1734 3.20667 14.7334 5.32 14.9667 7.82667H15.9667C15.6334 3.72667 12.2 0.5 8.00671 0.5Z" fill="#0D1A26"/>
</g>
<defs>
<clipPath id="clip0_567_62">
<rect width="16" height="16" fill="white" transform="translate(0 0.5)"/>
</clipPath>
</defs>
</svg>
