<svg width="20" height="20" viewBox="0 0 20 20" fill="none" xmlns="http://www.w3.org/2000/svg">
<g clip-path="url(#clip0_586_1079)">
<path d="M6.27481 17.9C3.54981 16.6167 1.5998 13.9667 1.2998 10.8333H0.0498047C0.474805 15.9667 4.76647 20 10.0081 20L10.5581 19.975L7.38314 16.8L6.27481 17.9ZM7.01647 12.4667C6.85814 12.4667 6.70814 12.4417 6.58314 12.4C6.44981 12.35 6.34147 12.2917 6.2498 12.2C6.15814 12.1167 6.08314 12.0167 6.03314 11.8917C5.98314 11.775 5.95814 11.6417 5.95814 11.5H4.8748C4.8748 11.8 4.93314 12.0667 5.0498 12.2917C5.16647 12.5167 5.3248 12.7083 5.51647 12.8667C5.71647 13.0167 5.94147 13.1333 6.19981 13.2083C6.44981 13.2917 6.71647 13.3333 6.9998 13.3333C7.30814 13.3333 7.5998 13.2917 7.85814 13.2083C8.1248 13.125 8.35814 13 8.5498 12.8417C8.74147 12.6833 8.89981 12.4833 9.00814 12.2417C9.11647 12 9.1748 11.7333 9.1748 11.4333C9.1748 11.275 9.15814 11.1167 9.11647 10.9667C9.0748 10.8167 9.01647 10.675 8.9248 10.5417C8.84147 10.4083 8.7248 10.2917 8.59147 10.1833C8.44981 10.075 8.28314 9.99167 8.08314 9.925C8.2498 9.85 8.39147 9.75833 8.51647 9.65C8.64147 9.54167 8.74147 9.425 8.82481 9.3C8.90814 9.175 8.96647 9.05 9.00814 8.91667C9.0498 8.78333 9.06647 8.65 9.06647 8.51667C9.06647 8.21667 9.01647 7.95 8.91647 7.71667C8.81647 7.48333 8.6748 7.29167 8.49147 7.14167C8.3248 6.98333 8.0998 6.86667 7.8498 6.78333C7.59147 6.70833 7.30814 6.66667 6.9998 6.66667C6.6998 6.66667 6.42481 6.70833 6.16647 6.8C5.91647 6.89167 5.69147 7.01667 5.50814 7.175C5.33314 7.33333 5.19147 7.51667 5.08314 7.73333C4.98314 7.95 4.93314 8.18333 4.93314 8.44167H6.01647C6.01647 8.3 6.04147 8.175 6.09147 8.06667C6.14147 7.95833 6.20814 7.85833 6.29981 7.78333C6.39147 7.70833 6.49147 7.64167 6.61647 7.6C6.74147 7.55833 6.86647 7.53333 7.01647 7.53333C7.3498 7.53333 7.5998 7.61667 7.75814 7.79167C7.91647 7.95833 7.9998 8.2 7.9998 8.50833C7.9998 8.65833 7.9748 8.79167 7.93314 8.91667C7.89147 9.04167 7.81647 9.14167 7.7248 9.225C7.63314 9.30833 7.51647 9.375 7.38314 9.425C7.2498 9.475 7.08314 9.5 6.8998 9.5H6.25814V10.3583H6.8998C7.08314 10.3583 7.2498 10.375 7.3998 10.4167C7.5498 10.4583 7.6748 10.525 7.7748 10.6083C7.8748 10.7 7.95814 10.8083 8.01647 10.9417C8.0748 11.075 8.0998 11.2333 8.0998 11.4167C8.0998 11.7583 7.9998 12.0167 7.80814 12.1917C7.61647 12.3833 7.3498 12.4667 7.01647 12.4667ZM14.1415 7.53333C13.8748 7.25833 13.5581 7.04167 13.1915 6.89167C12.8248 6.74167 12.4165 6.66667 11.9665 6.66667H9.9998V13.3333H11.9165C12.3748 13.3333 12.7998 13.2583 13.1748 13.1083C13.5498 12.9583 13.8748 12.75 14.1415 12.475C14.4081 12.2 14.6165 11.8667 14.7581 11.4833C14.8998 11.0917 14.9748 10.6583 14.9748 10.175V9.84167C14.9748 9.35833 14.8998 8.925 14.7581 8.53333C14.6165 8.14167 14.4081 7.80833 14.1415 7.53333ZM13.8165 10.1667C13.8165 10.5167 13.7748 10.825 13.6998 11.1083C13.6165 11.3833 13.4998 11.625 13.3415 11.8167C13.1831 12.0083 12.9831 12.1583 12.7498 12.2583C12.5081 12.3583 12.2331 12.4083 11.9248 12.4083H11.1665V7.6H11.9748C12.5748 7.6 13.0331 7.79167 13.3415 8.175C13.6581 8.55833 13.8165 9.10833 13.8165 9.83333V10.1667ZM10.0081 0L9.45814 0.025L12.6331 3.2L13.7415 2.09167C16.4665 3.38333 18.4165 6.025 18.7081 9.15833H19.9581C19.5415 4.03333 15.2498 0 10.0081 0Z" fill="#0D1A26"/>
</g>
<defs>
<clipPath id="clip0_586_1079">
<rect width="20" height="20" fill="white"/>
</clipPath>
</defs>
</svg>
