<svg width="16" height="16" viewBox="0 0 16 16" fill="none" xmlns="http://www.w3.org/2000/svg">
<g clip-path="url(#clip0_419_293)">
<path d="M5.02001 14.32C2.84001 13.2933 1.28001 11.1733 1.04001 8.66667H0.0400085C0.380009 12.7733 3.81334 16 8.00667 16L8.44667 15.98L5.90667 13.44L5.02001 14.32ZM5.61334 9.97333C5.48667 9.97333 5.36667 9.95333 5.26667 9.92C5.16001 9.88 5.07334 9.83333 5.00001 9.76C4.92667 9.69333 4.86667 9.61333 4.82667 9.51333C4.78667 9.42 4.76667 9.31333 4.76667 9.2H3.90001C3.90001 9.44 3.94668 9.65333 4.04001 9.83333C4.13334 10.0133 4.26001 10.1667 4.41334 10.2933C4.57334 10.4133 4.75334 10.5067 4.96001 10.5667C5.16001 10.6333 5.37334 10.6667 5.60001 10.6667C5.84667 10.6667 6.08001 10.6333 6.28667 10.5667C6.50001 10.5 6.68667 10.4 6.84001 10.2733C6.99334 10.1467 7.12001 9.98667 7.20667 9.79333C7.29334 9.6 7.34001 9.38667 7.34001 9.14667C7.34001 9.02 7.32667 8.89333 7.29334 8.77333C7.26001 8.65333 7.21334 8.54 7.14001 8.43333C7.07334 8.32667 6.98001 8.23333 6.87334 8.14667C6.76001 8.06 6.62667 7.99333 6.46667 7.94C6.60001 7.88 6.71334 7.80667 6.81334 7.72C6.91334 7.63333 6.99334 7.54 7.06001 7.44C7.12667 7.34 7.17334 7.24 7.20667 7.13333C7.24001 7.02667 7.25334 6.92 7.25334 6.81333C7.25334 6.57333 7.21334 6.36 7.13334 6.17333C7.05334 5.98667 6.94001 5.83333 6.79334 5.71333C6.66001 5.58667 6.48001 5.49333 6.28001 5.42667C6.07334 5.36667 5.84667 5.33333 5.60001 5.33333C5.36001 5.33333 5.14001 5.36667 4.93334 5.44C4.73334 5.51333 4.55334 5.61333 4.40667 5.74C4.26667 5.86667 4.15334 6.01333 4.06667 6.18667C3.98668 6.36 3.94668 6.54667 3.94668 6.75333H4.81334C4.81334 6.64 4.83334 6.54 4.87334 6.45333C4.91334 6.36667 4.96667 6.28667 5.04001 6.22667C5.11334 6.16667 5.19334 6.11333 5.29334 6.08C5.39334 6.04667 5.49334 6.02667 5.61334 6.02667C5.88001 6.02667 6.08001 6.09333 6.20668 6.23333C6.33334 6.36667 6.40001 6.56 6.40001 6.80667C6.40001 6.92667 6.38001 7.03333 6.34667 7.13333C6.31334 7.23333 6.25334 7.31333 6.18001 7.38C6.10667 7.44667 6.01334 7.5 5.90667 7.54C5.80001 7.58 5.66667 7.6 5.52001 7.6H5.00668V8.28667H5.52001C5.66667 8.28667 5.80001 8.3 5.92001 8.33333C6.04001 8.36667 6.14001 8.42 6.22001 8.48667C6.30001 8.56 6.36667 8.64667 6.41334 8.75333C6.46001 8.86 6.48001 8.98667 6.48001 9.13333C6.48001 9.40667 6.40001 9.61333 6.24667 9.75333C6.09334 9.90667 5.88001 9.97333 5.61334 9.97333ZM11.3133 6.02667C11.1 5.80667 10.8467 5.63333 10.5533 5.51333C10.26 5.39333 9.93334 5.33333 9.57334 5.33333H8.00001V10.6667H9.53334C9.90001 10.6667 10.24 10.6067 10.54 10.4867C10.84 10.3667 11.1 10.2 11.3133 9.98C11.5267 9.76 11.6933 9.49333 11.8067 9.18667C11.92 8.87333 11.98 8.52667 11.98 8.14V7.87333C11.98 7.48667 11.92 7.14 11.8067 6.82667C11.6933 6.51333 11.5267 6.24667 11.3133 6.02667ZM11.0533 8.13333C11.0533 8.41333 11.02 8.66 10.96 8.88667C10.8933 9.10667 10.8 9.3 10.6733 9.45333C10.5467 9.60667 10.3867 9.72667 10.2 9.80667C10.0067 9.88667 9.78667 9.92667 9.54001 9.92667H8.93334V6.08H9.58001C10.06 6.08 10.4267 6.23333 10.6733 6.54C10.9267 6.84667 11.0533 7.28667 11.0533 7.86667V8.13333ZM8.00667 0L7.56667 0.02L10.1067 2.56L10.9933 1.67333C13.1733 2.70667 14.7333 4.82 14.9667 7.32667H15.9667C15.6333 3.22667 12.2 0 8.00667 0Z" fill="#0D1A26"/>
</g>
<defs>
<clipPath id="clip0_419_293">
<rect width="16" height="16" fill="white"/>
</clipPath>
</defs>
</svg>
