<svg width="14" height="14" viewBox="0 0 14 14" fill="none" xmlns="http://www.w3.org/2000/svg">
<g clip-path="url(#clip0_567_2036)">
<path d="M4.39266 12.53C2.48516 11.6317 1.12016 9.77667 0.910156 7.58333H0.0351562C0.332656 11.1767 3.33682 14 7.00599 14L7.39099 13.9825L5.16849 11.76L4.39266 12.53ZM4.91182 8.72667C4.80099 8.72667 4.69599 8.70917 4.60849 8.68C4.51516 8.645 4.43932 8.60417 4.37516 8.54C4.31099 8.48167 4.25849 8.41167 4.22349 8.32417C4.18849 8.2425 4.17099 8.14917 4.17099 8.05H3.41266C3.41266 8.26 3.45349 8.44667 3.53516 8.60417C3.61682 8.76167 3.72766 8.89583 3.86182 9.00667C4.00182 9.11167 4.15932 9.19333 4.34016 9.24583C4.51516 9.30417 4.70182 9.33333 4.90016 9.33333C5.11599 9.33333 5.32016 9.30417 5.50099 9.24583C5.68766 9.1875 5.85099 9.1 5.98516 8.98917C6.11932 8.87833 6.23016 8.73833 6.30599 8.56917C6.38182 8.4 6.42266 8.21333 6.42266 8.00333C6.42266 7.8925 6.41099 7.78167 6.38182 7.67667C6.35266 7.57167 6.31182 7.4725 6.24766 7.37917C6.18932 7.28583 6.10766 7.20417 6.01432 7.12833C5.91516 7.0525 5.79849 6.99417 5.65849 6.9475C5.77516 6.895 5.87432 6.83083 5.96182 6.755C6.04932 6.67917 6.11932 6.5975 6.17766 6.51C6.23599 6.4225 6.27682 6.335 6.30599 6.24167C6.33516 6.14833 6.34682 6.055 6.34682 5.96167C6.34682 5.75167 6.31182 5.565 6.24182 5.40167C6.17182 5.23833 6.07266 5.10417 5.94432 4.99917C5.82766 4.88833 5.67016 4.80667 5.49516 4.74833C5.31432 4.69583 5.11599 4.66667 4.90016 4.66667C4.69016 4.66667 4.49766 4.69583 4.31682 4.76C4.14182 4.82417 3.98432 4.91167 3.85599 5.0225C3.73349 5.13333 3.63432 5.26167 3.55849 5.41333C3.48849 5.565 3.45349 5.72833 3.45349 5.90917H4.21182C4.21182 5.81 4.22932 5.7225 4.26432 5.64667C4.29932 5.57083 4.34599 5.50083 4.41016 5.44833C4.47432 5.39583 4.54432 5.34917 4.63182 5.32C4.71932 5.29083 4.80682 5.27333 4.91182 5.27333C5.14516 5.27333 5.32016 5.33167 5.43099 5.45417C5.54182 5.57083 5.60016 5.74 5.60016 5.95583C5.60016 6.06083 5.58266 6.15417 5.55349 6.24167C5.52432 6.32917 5.47182 6.39917 5.40766 6.4575C5.34349 6.51583 5.26182 6.5625 5.16849 6.5975C5.07516 6.6325 4.95849 6.65 4.83016 6.65H4.38099V7.25083H4.83016C4.95849 7.25083 5.07516 7.2625 5.18016 7.29167C5.28516 7.32083 5.37266 7.3675 5.44266 7.42583C5.51266 7.49 5.57099 7.56583 5.61182 7.65917C5.65266 7.7525 5.67016 7.86333 5.67016 7.99167C5.67016 8.23083 5.60016 8.41167 5.46599 8.53417C5.33182 8.66833 5.14516 8.72667 4.91182 8.72667ZM9.89932 5.27333C9.71266 5.08083 9.49099 4.92917 9.23432 4.82417C8.97766 4.71917 8.69182 4.66667 8.37682 4.66667H7.00016V9.33333H8.34182C8.66266 9.33333 8.96016 9.28083 9.22266 9.17583C9.48516 9.07083 9.71266 8.925 9.89932 8.7325C10.086 8.54 10.2318 8.30667 10.331 8.03833C10.4302 7.76417 10.4827 7.46083 10.4827 7.1225V6.88917C10.4827 6.55083 10.4302 6.2475 10.331 5.97333C10.2318 5.69917 10.086 5.46583 9.89932 5.27333ZM9.67182 7.11667C9.67182 7.36167 9.64266 7.5775 9.59016 7.77583C9.53182 7.96833 9.45016 8.1375 9.33932 8.27167C9.22849 8.40583 9.08849 8.51083 8.92516 8.58083C8.75599 8.65083 8.56349 8.68583 8.34766 8.68583H7.81682V5.32H8.38266C8.80266 5.32 9.12349 5.45417 9.33932 5.7225C9.56099 5.99083 9.67182 6.37583 9.67182 6.88333V7.11667ZM7.00599 0L6.62099 0.0175L8.84349 2.24L9.61932 1.46417C11.5268 2.36833 12.8918 4.2175 13.096 6.41083H13.971C13.6793 2.82333 10.6752 0 7.00599 0Z" fill="#0D1A26"/>
</g>
<defs>
<clipPath id="clip0_567_2036">
<rect width="14" height="14" fill="white"/>
</clipPath>
</defs>
</svg>
