<svg width="16" height="16" viewBox="0 0 16 16" fill="none" xmlns="http://www.w3.org/2000/svg">
<path d="M7.12249 1.10573C7.50171 0.411796 8.49829 0.411796 8.87751 1.10573L9.96022 3.08693C10.1657 3.46292 10.5879 3.66622 11.0099 3.59244L13.234 3.20368C14.0129 3.06751 14.6343 3.84666 14.3282 4.57581L13.4543 6.65757C13.2884 7.05264 13.3927 7.50946 13.7135 7.79344L15.4041 9.28987C15.9963 9.814 15.7745 10.7856 15.0136 11.0009L12.8412 11.6156C12.4289 11.7323 12.1367 12.0986 12.1147 12.5265L11.9989 14.7813C11.9583 15.571 11.0604 16.0034 10.4176 15.5427L8.58254 14.2275C8.23429 13.9779 7.76571 13.9779 7.41746 14.2275L5.58236 15.5427C4.9396 16.0034 4.04172 15.571 4.00113 14.7813L3.88526 12.5265C3.86327 12.0986 3.57112 11.7323 3.15884 11.6156L0.986381 11.0009C0.225463 10.7856 0.00370479 9.814 0.595851 9.28987L2.28646 7.79344C2.6073 7.50946 2.71156 7.05264 2.54571 6.65757L1.6718 4.57581C1.36571 3.84666 1.98706 3.06751 2.76604 3.20368L4.99007 3.59244C5.41214 3.66622 5.83431 3.46292 6.03978 3.08693L7.12249 1.10573Z" fill="#149BFC"/>
</svg>
