<svg width="24" height="24" viewBox="0 0 24 24" fill="none" xmlns="http://www.w3.org/2000/svg">
<g clip-path="url(#clip0_1_3950)">
<path d="M5 15H19V9H5V15ZM7 11H17V13H7V11ZM11 1H13V4H11V1ZM20.46 5.01L19.04 3.6L17.25 5.39L18.66 6.8L20.46 5.01ZM11 20H13V23H11V20ZM17.24 18.71L19.03 20.51L20.45 19.09L18.65 17.3L17.24 18.71ZM4.96 3.595L6.748 5.385L5.34 6.79L3.553 5.003L4.96 3.595ZM3.55 19.08L4.96 20.5L6.75 18.7L5.34 17.29L3.55 19.08Z" fill="#0D1A26"/>
</g>
<defs>
<clipPath id="clip0_1_3950">
<rect width="24" height="24" fill="white"/>
</clipPath>
</defs>
</svg>
