<svg width="24" height="24" viewBox="0 0 24 24" fill="none" xmlns="http://www.w3.org/2000/svg">
<g clip-path="url(#clip0_1_4043)">
<path d="M13 3V4H11V3H13ZM12 10.11L17.38 11.88L19.77 12.66L18.65 16.63C18.11 16.33 17.71 15.92 17.51 15.69L16 13.96L14.49 15.68C14.15 16.08 13.21 17 12 17C10.79 17 9.85 16.08 9.51 15.68L8 13.96L6.49 15.68C6.29 15.91 5.89 16.31 5.35 16.61L4.22 12.65L6.62 11.86L12 10.11ZM15 1H9V4H6C4.9 4 4 4.9 4 6V10.62L2.71 11.04C2.45 11.12 2.23 11.3 2.11 11.54C1.99 11.78 1.96 12.06 2.05 12.32L3.95 19H4C5.6 19 7.02 18.12 8 17C8.98 18.12 10.4 19 12 19C13.6 19 15.02 18.12 16 17C16.98 18.12 18.4 19 20 19H20.05L21.94 12.32C22.02 12.06 22 11.78 21.88 11.54C21.76 11.3 21.54 11.12 21.28 11.04L20 10.62V6C20 4.9 19.1 4 18 4H15V1ZM6 9.97V6H18V9.97L12 8L6 9.97ZM16 19.68C14.78 20.53 13.39 20.96 12 20.96C10.61 20.96 9.22 20.53 8 19.68C6.78 20.53 5.39 21 4 21H2V23H4C5.38 23 6.74 22.65 8 22.01C9.26 22.65 10.63 22.98 12 22.98C13.37 22.98 14.74 22.66 16 22.01C17.26 22.66 18.62 23 20 23H22V21H20C18.61 21 17.22 20.53 16 19.68Z" fill="#0D1A26"/>
</g>
<defs>
<clipPath id="clip0_1_4043">
<rect width="24" height="24" fill="white"/>
</clipPath>
</defs>
</svg>
