<svg width="24" height="24" viewBox="0 0 24 24" fill="none" xmlns="http://www.w3.org/2000/svg">
<g clip-path="url(#clip0_1_3328)">
<path d="M20 9.00007C19.96 4.61007 16.4 1.07007 12 1.07007C7.6 1.07007 4.04 4.61007 4 9.00007V15.0001C4 19.4201 7.58 23.0001 12 23.0001C16.42 23.0001 20 19.4201 20 15.0001V9.00007ZM18 9.00007H13V3.16007C15.81 3.63007 17.96 6.06007 18 9.00007ZM11 3.16007V9.00007H6C6.04 6.06007 8.19 3.63007 11 3.16007ZM18 15.0001C18 18.3101 15.31 21.0001 12 21.0001C8.69 21.0001 6 18.3101 6 15.0001V11.0001H18V15.0001Z" fill="#0D1A26"/>
</g>
<defs>
<clipPath id="clip0_1_3328">
<rect width="24" height="24" fill="white"/>
</clipPath>
</defs>
</svg>
