<svg width="24" height="24" viewBox="0 0 24 24" fill="none" xmlns="http://www.w3.org/2000/svg">
<g clip-path="url(#clip0_1_5012)">
<path d="M8 20.0001C8 21.1001 7.1 22.0001 6 22.0001C4.9 22.0001 4 21.1001 4 20.0001C4 18.9001 4.9 18.0001 6 18.0001C7.1 18.0001 8 18.9001 8 20.0001ZM15 8.66006V12.1701L17 14.1701V6.27006C17.58 5.59006 17.97 5.00006 18.65 5.00006C19.42 5.00006 20 5.66006 20 6.48006V7.00006H22V6.48006C22 4.56006 20.52 3.00006 18.65 3.00006C16.99 3.00006 16.11 4.27006 15.47 5.03006L11.97 9.14006L13.39 10.5601L15 8.66006ZM19.78 22.6101L17.87 20.7001C17.58 21.4601 16.86 22.0001 16 22.0001C14.9 22.0001 14 21.1001 14 20.0001C14 19.1401 14.54 18.4201 15.3 18.1301L14.17 17.0001H7.43C6.58 17.0001 6.12 16.0001 6.67 15.3501L9.36 12.1901L1.39 4.22006L2.8 2.81006L10.66 10.6701L12.08 12.0901L21.19 21.2001L19.78 22.6101ZM12.17 15.0001L10.78 13.6101L9.6 15.0001H12.17ZM10 5.00006C10.29 5.00006 10.58 5.02006 10.86 5.05006L9.49 6.67006L10.91 8.09006L14.3 4.10006C13.03 3.40006 11.56 3.00006 10 3.00006C8.77 3.00006 7.6 3.25006 6.53 3.70006L8.1 5.27006C8.71 5.10006 9.35 5.00006 10 5.00006Z" fill="#0D1A26"/>
</g>
<defs>
<clipPath id="clip0_1_5012">
<rect width="24" height="24" fill="white"/>
</clipPath>
</defs>
</svg>
