<svg width="24" height="24" viewBox="0 0 24 24" fill="none" xmlns="http://www.w3.org/2000/svg">
<g clip-path="url(#clip0_1_5287)">
<path d="M16 13.17L14.5 11.67V9H16V13.17ZM19.78 22.61L17.93 20.76C17.65 20.91 17.34 21 17 21C17 21.55 16.55 22 16 22C15.45 22 15 21.55 15 21H9C9 21.55 8.55 22 8 22C7.45 22 7 21.55 7 21C5.9 21 5 20.1 5 19V8C5 7.95 5.02 7.9 5.02 7.85L1.39 4.22L2.8 2.81L21.18 21.19L19.78 22.61ZM16.17 19L12.75 15.58V18H11.25V14.08L9.5 12.33V18H8V10.83L7 9.83V19H16.17ZM12.75 9H11.83L12.75 9.92V9ZM19 8V16.17L17 14.17V8H10.83L9.84 7.01L9 6.17V6V3C9 2.45 9.45 2 10 2H14C14.55 2 15 2.45 15 3V6H17C18.1 6 19 6.9 19 8ZM10.5 6H13.5V3.5H10.5V6Z" fill="#0D1A26"/>
</g>
<defs>
<clipPath id="clip0_1_5287">
<rect width="24" height="24" fill="white"/>
</clipPath>
</defs>
</svg>
