<svg width="24" height="24" viewBox="0 0 24 24" fill="none" xmlns="http://www.w3.org/2000/svg">
<g clip-path="url(#clip0_1_5160)">
<path d="M12 3C11.54 3 11.07 3.04 10.6 3.14C7.84 3.67 5.64 5.9 5.12 8.66C4.64 11.27 5.6 13.67 7.34 15.22C7.77 15.6 8 16.13 8 16.69V19C8 20.1 8.9 21 10 21H10.28C10.63 21.6 11.26 22 12 22C12.74 22 13.38 21.6 13.72 21H14C15.1 21 16 20.1 16 19V16.69C16 16.14 16.22 15.6 16.64 15.23C18.09 13.95 19 12.08 19 10C19 6.13 15.87 3 12 3ZM14 17H10V16H14V17ZM10 19V18H14V19H10ZM15.31 13.74C15.22 13.82 15.15 13.92 15.07 14H8.92C8.84 13.91 8.77 13.81 8.68 13.73C7.36 12.55 6.77 10.79 7.09 9.03C7.45 7.09 9.05 5.48 10.98 5.1C11.32 5.03 11.66 5 12 5C14.76 5 17 7.24 17 10C17 11.43 16.39 12.79 15.31 13.74Z" fill="#0D1A26"/>
<path d="M12.5 11H11.5V14H12.5V11Z" fill="#0D1A26"/>
<path d="M10.3795 8.87371L9.6724 9.58081L11.7937 11.7021L12.5008 10.995L10.3795 8.87371Z" fill="#0D1A26"/>
<path d="M11.501 11.0053L12.2081 11.7124L14.3294 9.5911L13.6223 8.884L11.501 11.0053Z" fill="#0D1A26"/>
</g>
<defs>
<clipPath id="clip0_1_5160">
<rect width="24" height="24" fill="white"/>
</clipPath>
</defs>
</svg>
