<svg width="24" height="24" viewBox="0 0 24 24" fill="none" xmlns="http://www.w3.org/2000/svg">
<g clip-path="url(#clip0_1_5007)">
<path d="M8.9 6.0701L7.48 4.6601L9 3.0001H15L16.83 5.0001H20C21.1 5.0001 22 5.9001 22 7.0001V19.0001C22 19.0501 21.99 19.1001 21.98 19.1601L20 17.1701V7.0001H15.95L14.12 5.0001H9.88L8.9 6.0701ZM20.49 23.3101L18.17 21.0001H4C2.9 21.0001 2 20.1001 2 19.0001V7.0001C2 6.4101 2.27 5.8801 2.68 5.5101L0.68 3.5101L2.1 2.1001L21.9 21.9001L20.49 23.3101ZM9.19 12.0201C9.08 12.3301 9 12.6501 9 13.0001C9 14.6601 10.34 16.0001 12 16.0001C12.35 16.0001 12.67 15.9201 12.98 15.8101L9.19 12.0201ZM16.17 19.0001L14.49 17.3201C13.76 17.7501 12.91 18.0001 12 18.0001C9.24 18.0001 7 15.7601 7 13.0001C7 12.0901 7.25 11.2401 7.68 10.5101L4.17 7.0001H4V19.0001H16.17ZM14.81 11.9801L16.88 14.0501C16.96 13.7101 17 13.3601 17 13.0001C17 10.2401 14.76 8.0001 12 8.0001C11.64 8.0001 11.29 8.0401 10.94 8.1201L13.01 10.1901C13.85 10.4901 14.51 11.1501 14.81 11.9801Z" fill="#0D1A26"/>
</g>
<defs>
<clipPath id="clip0_1_5007">
<rect width="24" height="24" fill="white"/>
</clipPath>
</defs>
</svg>
