<svg width="24" height="24" viewBox="0 0 24 24" fill="none" xmlns="http://www.w3.org/2000/svg">
<g clip-path="url(#clip0_1_1815)">
<path d="M10 4.00009H14V6.00009H10.4L12.4 8.00009H20V15.6001L22 17.6001V8.00009C22 6.89009 21.11 6.00009 20 6.00009H16V4.00009C16 2.89009 15.11 2.00009 14 2.00009H10C9.01 2.00009 8.2 2.70009 8.04 3.64009L10 5.60009V4.00009ZM3.4 1.84009L1.99 3.25009L4.74 6.00009H4C2.89 6.00009 2.01 6.89009 2.01 8.00009L2 19.0001C2 20.1101 2.89 21.0001 4 21.0001H19.74L21.74 23.0001L23.15 21.5901L3.4 1.84009ZM4 19.0001V8.00009H6.74L17.74 19.0001H4Z" fill="#0D1A26"/>
</g>
<defs>
<clipPath id="clip0_1_1815">
<rect width="24" height="24" fill="white"/>
</clipPath>
</defs>
</svg>
