<svg width="24" height="24" viewBox="0 0 24 24" fill="none" xmlns="http://www.w3.org/2000/svg">
<g clip-path="url(#clip0_1_3651)">
<path d="M18.7 12.4001C18.42 12.2401 18.13 12.1101 17.84 12.0001C18.13 11.8901 18.42 11.7601 18.7 11.6001C20.62 10.4901 21.69 8.48006 21.7 6.41006C20.79 5.89006 19.75 5.61006 18.69 5.61006C17.67 5.61006 16.64 5.87006 15.7 6.41006C15.42 6.57006 15.16 6.76006 14.92 6.95006C14.97 6.64006 15 6.32006 15 6.00006C15 3.78006 13.79 1.85006 12 0.810059C10.21 1.85006 9 3.78006 9 6.00006C9 6.32006 9.03 6.64006 9.08 6.95006C8.84 6.75006 8.58 6.56006 8.3 6.40006C7.36 5.86006 6.33 5.60006 5.31 5.60006C4.26 5.60006 3.21 5.88006 2.3 6.40006C2.3 8.47006 3.37 10.4801 5.3 11.5901C5.58 11.7501 5.87 11.8801 6.16 11.9901C5.87 12.1001 5.58 12.2301 5.3 12.3901C3.38 13.5001 2.31 15.5101 2.3 17.5801C3.21 18.1001 4.25 18.3801 5.31 18.3801C6.33 18.3801 7.36 18.1201 8.3 17.5801C8.58 17.4201 8.84 17.2301 9.08 17.0401C9.03 17.3601 9 17.6801 9 18.0001C9 20.2201 10.21 22.1501 12 23.1901C13.79 22.1501 15 20.2201 15 18.0001C15 17.6801 14.97 17.3601 14.92 17.0501C15.16 17.2501 15.42 17.4301 15.7 17.5901C16.64 18.1301 17.67 18.3901 18.69 18.3901C19.74 18.3901 20.79 18.1101 21.7 17.5901C21.69 15.5201 20.62 13.5101 18.7 12.4001ZM16.16 8.52006C16.37 8.35006 16.54 8.23006 16.7 8.15006C17.31 7.80006 18 7.61006 18.7 7.61006C18.97 7.61006 19.23 7.64006 19.49 7.69006C19.18 8.60006 18.55 9.38006 17.71 9.87006C17.54 9.97006 17.35 10.0501 17.13 10.1401L15.75 10.6601C15.58 10.2001 15.34 9.79006 15.03 9.42006L16.16 8.52006ZM12 3.37006C12.63 4.09006 13 5.03006 13 6.00006C13 6.19006 12.98 6.41006 12.95 6.63006L12.72 8.07006C12.48 8.03006 12.24 8.00006 12 8.00006C11.76 8.00006 11.52 8.03006 11.29 8.07006L11.06 6.63006C11.02 6.41006 11 6.19006 11 6.00006C11 5.02006 11.37 4.09006 12 3.37006ZM4.51 7.68006C4.77 7.62006 5.04 7.60006 5.31 7.60006C6 7.60006 6.69 7.78006 7.3 8.14006C7.45 8.23006 7.62 8.34006 7.79 8.49006L8.94 9.45006C8.64 9.81006 8.41 10.2101 8.24 10.6501L6.86 10.1301C6.65 10.0401 6.46 9.95006 6.3 9.86006C5.43 9.36006 4.81 8.59006 4.51 7.68006ZM7.84 15.4701C7.63 15.6401 7.46 15.7601 7.3 15.8401C6.69 16.1901 6 16.3801 5.3 16.3801C5.03 16.3801 4.77 16.3501 4.51 16.3001C4.82 15.3901 5.45 14.6101 6.29 14.1201C6.46 14.0201 6.65 13.9401 6.87 13.8501L8.25 13.3301C8.41 13.7901 8.66 14.2101 8.97 14.5701L7.84 15.4701ZM12 20.6301C11.37 19.9101 11 18.9701 11 18.0001C11 17.8001 11.02 17.5901 11.06 17.3501L11.28 15.9301C11.51 15.9701 11.75 16.0001 12 16.0001C12.24 16.0001 12.48 15.9701 12.71 15.9301L12.94 17.3701C12.98 17.5901 13 17.8101 13 18.0001C13 18.9801 12.63 19.9101 12 20.6301ZM18.69 16.3901C18 16.3901 17.31 16.2101 16.7 15.8501C16.52 15.7501 16.36 15.6301 16.21 15.5101L15.06 14.5501C15.36 14.1901 15.6 13.7901 15.76 13.3401L17.14 13.8601C17.36 13.9401 17.55 14.0301 17.71 14.1201C18.56 14.6101 19.18 15.3901 19.49 16.3001C19.22 16.3701 18.95 16.3901 18.69 16.3901Z" fill="#0D1A26"/>
</g>
<defs>
<clipPath id="clip0_1_3651">
<rect width="24" height="24" fill="white"/>
</clipPath>
</defs>
</svg>
