<svg width="24" height="24" viewBox="0 0 24 24" fill="none" xmlns="http://www.w3.org/2000/svg">
<g clip-path="url(#clip0_1_4559)">
<path d="M17 15H19V17H17V15ZM17 11H19V13H17V11ZM17 7H19V9H17V7ZM13.74 7L15 7.84V7H13.74Z" fill="#0D1A26"/>
<path d="M10 3V4.51L12 5.84V5H21V19H17V21H23V3H10Z" fill="#0D1A26"/>
<path d="M8.17 5.69995L15 10.25V21H1V10.48L8.17 5.69995ZM10 19H13V11.16L8.17 8.08995L3 11.38V19H6V13H10V19Z" fill="#0D1A26"/>
</g>
<defs>
<clipPath id="clip0_1_4559">
<rect width="24" height="24" fill="white"/>
</clipPath>
</defs>
</svg>
