<svg width="24" height="24" viewBox="0 0 24 24" fill="none" xmlns="http://www.w3.org/2000/svg">
<g clip-path="url(#clip0_1_1938)">
<path d="M18 13C18 16.31 15.31 19 12 19C8.69 19 6 16.31 6 13C6 9.69 8.69 7 12 7V11L17 6L12 1V5C7.58 5 4 8.58 4 13C4 17.42 7.58 21 12 21C16.42 21 20 17.42 20 13H18Z" fill="#0D1A26"/>
<path d="M10.9 16V11.73H10.81L9.04 12.36V13.05L10.05 12.74V16H10.9Z" fill="#0D1A26"/>
<path d="M14.32 11.7799C14.14 11.7099 13.95 11.6799 13.73 11.6799C13.51 11.6799 13.32 11.7099 13.14 11.7799C12.96 11.8499 12.81 11.9599 12.69 12.1099C12.57 12.2599 12.46 12.4499 12.4 12.6799C12.34 12.9099 12.3 13.1799 12.3 13.4999V14.2399C12.3 14.5599 12.34 14.8399 12.41 15.0599C12.48 15.2799 12.58 15.4799 12.71 15.6299C12.84 15.7799 12.99 15.8899 13.17 15.9599C13.35 16.0299 13.54 16.0599 13.76 16.0599C13.98 16.0599 14.17 16.0299 14.35 15.9599C14.53 15.8899 14.68 15.7799 14.8 15.6299C14.92 15.4799 15.02 15.2899 15.09 15.0599C15.16 14.8299 15.19 14.5599 15.19 14.2399V13.4999C15.19 13.1799 15.15 12.8999 15.08 12.6799C15.01 12.4599 14.91 12.2599 14.78 12.1099C14.65 11.9599 14.49 11.8499 14.32 11.7799ZM14.33 14.3499C14.33 14.5399 14.32 14.6999 14.29 14.8299C14.26 14.9599 14.23 15.0699 14.18 15.1499C14.13 15.2299 14.07 15.2899 13.99 15.3199C13.91 15.3499 13.83 15.3699 13.74 15.3699C13.65 15.3699 13.56 15.3499 13.49 15.3199C13.42 15.2899 13.35 15.2299 13.3 15.1499C13.25 15.0699 13.21 14.9599 13.18 14.8299C13.15 14.6999 13.14 14.5399 13.14 14.3499V13.3799C13.14 13.1899 13.15 13.0299 13.18 12.8999C13.21 12.7699 13.24 12.6699 13.3 12.5899C13.36 12.5099 13.41 12.4499 13.49 12.4199C13.57 12.3899 13.65 12.3699 13.74 12.3699C13.83 12.3699 13.92 12.3899 13.99 12.4199C14.06 12.4499 14.13 12.5099 14.18 12.5899C14.23 12.6699 14.27 12.7699 14.3 12.8999C14.33 13.0299 14.34 13.1899 14.34 13.3799V14.3499H14.33Z" fill="#0D1A26"/>
</g>
<defs>
<clipPath id="clip0_1_1938">
<rect width="24" height="24" fill="white"/>
</clipPath>
</defs>
</svg>
