<svg width="24" height="24" viewBox="0 0 24 24" fill="none" xmlns="http://www.w3.org/2000/svg">
<g clip-path="url(#clip0_1_2467)">
<path d="M21.79 18.0001L23.79 20.0001H24V18.0001H21.79ZM1.11 2.98007L2.66 4.54007C2.25 4.91007 2 5.43007 2 6.02007V16.0001C2 17.1001 2.9 18.0001 4.01 18.0001H0V20.0001H18.13L20.84 22.7101L22.25 21.3001L2.52 1.57007L1.11 2.98007ZM4 6.02007H4.13L9.08 10.9501C7.94 12.0701 7.31 13.5201 7 15.0001C7.96 13.7101 9.13 12.9201 10.67 12.5401L14.13 16.0201H4V6.02007ZM20 6.02007V16.2101L21.3 17.5101C21.72 17.1401 22 16.6201 22 16.0201V6.02007C22 4.91007 21.1 4.02007 20 4.02007H7.8L9.8 6.02007H20ZM12.93 9.15007L15.72 11.9301L17 10.7301L13 7.00007V9.13007L12.93 9.15007Z" fill="#0D1A26"/>
</g>
<defs>
<clipPath id="clip0_1_2467">
<rect width="24" height="24" fill="white"/>
</clipPath>
</defs>
</svg>
