<svg width="24" height="24" viewBox="0 0 24 24" fill="none" xmlns="http://www.w3.org/2000/svg">
<g clip-path="url(#clip0_1_2725)">
<path d="M22 5.70005L17.4 1.80005L16.1 3.30005L20.7 7.20005L22 5.70005ZM7.9 3.40005L6.6 1.90005L2 5.70005L3.3 7.20005L7.9 3.40005ZM12.5 8.00005H11V14L15.7 16.9L16.5 15.7L12.5 13.3V8.00005ZM12 4.00005C7 4.00005 3 8.00005 3 13C3 18 7 22 12 22C17 22 21 18 21 13C21 8.00005 17 4.00005 12 4.00005ZM12 20C8.1 20 5 16.9 5 13C5 9.10005 8.1 6.00005 12 6.00005C15.9 6.00005 19 9.10005 19 13C19 16.9 15.9 20 12 20Z" fill="#0D1A26"/>
</g>
<defs>
<clipPath id="clip0_1_2725">
<rect width="24" height="24" fill="white"/>
</clipPath>
</defs>
</svg>
