<svg width="24" height="24" viewBox="0 0 24 24" fill="none" xmlns="http://www.w3.org/2000/svg">
<g clip-path="url(#clip0_1_2069)">
<path d="M21 5H23V19H21V5ZM17 5H19V19H17V5ZM14 5H2C1.45 5 1 5.45 1 6V18C1 18.55 1.45 19 2 19H14C14.55 19 15 18.55 15 18V6C15 5.45 14.55 5 14 5ZM13 17H3V7H13V17Z" fill="#0D1A26"/>
<path d="M8 11.89C9.07696 11.89 9.95 11.0169 9.95 9.93999C9.95 8.86303 9.07696 7.98999 8 7.98999C6.92304 7.98999 6.05 8.86303 6.05 9.93999C6.05 11.0169 6.92304 11.89 8 11.89Z" fill="#0D1A26"/>
<path d="M11.89 15.3499C11.89 14.0499 9.3 13.3999 8 13.3999C6.7 13.3999 4.11 14.0499 4.11 15.3499V15.9999H11.89V15.3499Z" fill="#0D1A26"/>
</g>
<defs>
<clipPath id="clip0_1_2069">
<rect width="24" height="24" fill="white"/>
</clipPath>
</defs>
</svg>
