<svg width="24" height="24" viewBox="0 0 24 24" fill="none" xmlns="http://www.w3.org/2000/svg">
<g clip-path="url(#clip0_1_1894)">
<path d="M13 10.0001C13 9.45006 13.45 9.00006 14 9.00006H17C17.55 9.00006 18 9.45006 18 10.0001V11.0001H16.5V10.5001H14.5V11.5001L13 10.0001ZM16.5 13.5001L17.71 14.7101C17.89 14.5201 18 14.2701 18 14.0001V13.0001H16.5V13.5001ZM8.83 6.00006H19V16.1701L20.98 18.1501C20.98 18.1001 21 18.0501 21 17.9901V6.00006C21 4.90006 20.1 4.00006 19 4.00006H6.83L8.83 6.00006ZM19.78 22.6101L17.17 20.0001H5C3.89 20.0001 3 19.1001 3 18.0001V6.00006C3 5.95006 3.02 5.90006 3.02 5.85006L1.39 4.22006L2.8 2.81006L21.18 21.1901L19.78 22.6101ZM7.5 13.5001H9.5V13.0001H10.17L7.67 10.5001H7.5V13.5001ZM15.17 18.0001L11 13.8301V14.0001C11 14.5501 10.55 15.0001 10 15.0001H7C6.45 15.0001 6 14.5501 6 14.0001V10.0001C6 9.68006 6.16 9.41006 6.4 9.22006L5 7.83006V18.0001H15.17Z" fill="#0D1A26"/>
</g>
<defs>
<clipPath id="clip0_1_1894">
<rect width="24" height="24" fill="white"/>
</clipPath>
</defs>
</svg>
