<svg width="24" height="24" viewBox="0 0 24 24" fill="none" xmlns="http://www.w3.org/2000/svg">
<g clip-path="url(#clip0_1_3944)">
<path d="M12.01 6C14.62 6 16.9 7.86 17.41 10.43L17.71 11.93L19.23 12.04C20.79 12.15 22.01 13.45 22.01 15C22.01 16.65 20.66 18 19.01 18H6.01C3.8 18 2.01 16.21 2.01 14C2.01 11.95 3.54 10.24 5.57 10.03L6.64 9.92L7.14 8.97C8.08 7.14 9.95 6 12.01 6ZM12.01 4C9.12 4 6.6 5.64 5.35 8.04C2.35 8.36 0.01 10.91 0.01 14C0.01 17.31 2.7 20 6.01 20H19.01C21.77 20 24.01 17.76 24.01 15C24.01 12.36 21.96 10.22 19.37 10.04C18.68 6.59 15.65 4 12.01 4Z" fill="#0D1A26"/>
</g>
<defs>
<clipPath id="clip0_1_3944">
<rect width="24" height="24" fill="white"/>
</clipPath>
</defs>
</svg>
