<svg width="24" height="24" viewBox="0 0 24 24" fill="none" xmlns="http://www.w3.org/2000/svg">
<g clip-path="url(#clip0_1_2440)">
<path d="M6.18 19.9999C7.38398 19.9999 8.36 19.0239 8.36 17.8199C8.36 16.6159 7.38398 15.6399 6.18 15.6399C4.97602 15.6399 4 16.6159 4 17.8199C4 19.0239 4.97602 19.9999 6.18 19.9999Z" fill="#0D1A26"/>
<path d="M4 4.43994V7.26994C11.03 7.26994 16.73 12.9699 16.73 19.9999H19.56C19.56 11.4099 12.59 4.43994 4 4.43994ZM4 10.0999V12.9299C7.9 12.9299 11.07 16.0999 11.07 19.9999H13.9C13.9 14.5299 9.47 10.0999 4 10.0999Z" fill="#0D1A26"/>
</g>
<defs>
<clipPath id="clip0_1_2440">
<rect width="24" height="24" fill="white"/>
</clipPath>
</defs>
</svg>
