<svg width="24" height="24" viewBox="0 0 24 24" fill="none" xmlns="http://www.w3.org/2000/svg">
<g clip-path="url(#clip0_1_1575)">
<path d="M20 4.00009V16.0001H18.66L20.57 17.9101C21.39 17.6601 22 16.9001 22 16.0001V4.00009C22 2.90009 21.1 2.00009 20 2.00009H4.66L6.66 4.00009H20ZM6 12.0001H8V14.0001H6V12.0001ZM18 9.00009H11.66L13.66 11.0001H18V9.00009ZM18 6.00009H10V7.34009L10.66 8.00009H18V6.00009ZM1.41 1.59009L0 3.00009L2.01 5.01009L2 22.0001L6 18.0001H15L20.73 23.7301L22.14 22.3201L1.41 1.59009ZM5.17 16.0001L4 17.1701V7.00009L6 9.00009V11.0001H8L13 16.0001H5.17Z" fill="#0D1A26"/>
</g>
<defs>
<clipPath id="clip0_1_1575">
<rect width="24" height="24" fill="white"/>
</clipPath>
</defs>
</svg>
