<svg width="24" height="24" viewBox="0 0 24 24" fill="none" xmlns="http://www.w3.org/2000/svg">
<g clip-path="url(#clip0_1_784)">
<path d="M10.04 6.29006C10.66 6.11006 11.32 6.00006 12 6.00006C15.86 6.00006 19 9.14006 19 13.0001C19 13.6801 18.89 14.3401 18.71 14.9601L20.27 16.5201C20.74 15.4401 21 14.2501 21 13.0001C21 8.03006 16.97 4.00006 12 4.00006C10.75 4.00006 9.56 4.26006 8.47 4.72006L10.04 6.29006ZM17.337 1.81006L21.944 5.65506L20.664 7.19006L16.054 3.34706L17.337 1.81006ZM3.02 2.10006L1.61 3.51006L2.98 4.88006L2.06 5.65006L3.34 7.19006L4.4 6.31006L5.2 7.11006C3.83 8.69006 3 10.7501 3 13.0001C3 17.9701 7.03 22.0001 12 22.0001C14.25 22.0001 16.31 21.1701 17.89 19.8001L19.99 21.9001L21.4 20.4901L3.02 2.10006ZM12 20.0001C8.14 20.0001 5 16.8601 5 13.0001C5 11.3001 5.61 9.74006 6.62 8.53006L16.47 18.3801C15.26 19.3901 13.7 20.0001 12 20.0001ZM7.48 3.73006L7.94 3.35006L6.66 1.81006L6.06 2.31006L7.48 3.73006Z" fill="#0D1A26"/>
</g>
<defs>
<clipPath id="clip0_1_784">
<rect width="24" height="24" fill="white"/>
</clipPath>
</defs>
</svg>
