<svg width="24" height="24" viewBox="0 0 24 24" fill="none" xmlns="http://www.w3.org/2000/svg">
<g clip-path="url(#clip0_1_4793)">
<path d="M10 6.35V4.26C9.34 4.43 8.71 4.69 8.12 5.01L9.62 6.51C9.75 6.46 9.87 6.4 10 6.35ZM20 12C20 9.79 19.09 7.8 17.64 6.36L20 4H14V10L16.24 7.76C17.32 8.85 18 10.34 18 12C18 12.85 17.81 13.65 17.49 14.38L18.99 15.88C19.63 14.74 20 13.41 20 12ZM4.27 4L2.86 5.41L5.22 7.77C4.45 8.99 4 10.44 4 12C4 14.21 4.91 16.2 6.36 17.64L4 20H10V14L7.76 16.24C6.68 15.15 6 13.66 6 12C6 11 6.25 10.06 6.68 9.23L14.76 17.31C14.51 17.44 14.26 17.55 14 17.65V19.74C14.8 19.53 15.55 19.2 16.23 18.78L18.81 21.36L20.22 19.95L4.27 4Z" fill="#0D1A26"/>
</g>
<defs>
<clipPath id="clip0_1_4793">
<rect width="24" height="24" fill="white"/>
</clipPath>
</defs>
</svg>
