<svg width="24" height="24" viewBox="0 0 24 24" fill="none" xmlns="http://www.w3.org/2000/svg">
<g clip-path="url(#clip0_1_4720)">
<path d="M15.9 4.99992C15.73 4.99992 15.58 5.08992 15.49 5.22992L15.42 5.37992L10.24 17.0299C10.08 17.3199 9.98 17.6399 9.98 17.9899C9.98 19.0999 10.88 19.9999 11.99 19.9999C12.95 19.9999 13.76 19.3199 13.95 18.4099L13.96 18.3799L16.4 5.49992C16.4 5.21992 16.18 4.99992 15.9 4.99992ZM1 8.99992L3 10.9999C5.88 8.11992 9.79 6.91992 13.53 7.37992L14.72 4.69992C9.89 3.83992 4.74 5.26992 1 8.99992ZM21 10.9999L23 8.99992C21.36 7.35992 19.45 6.17992 17.41 5.42992L16.88 8.24992C18.38 8.86992 19.78 9.77992 21 10.9999ZM17 14.9999L19 12.9999C18.2 12.1999 17.3 11.5799 16.34 11.1099L15.79 14.0299C16.21 14.2999 16.62 14.6199 17 14.9999ZM5 12.9999L7 14.9999C8.13 13.8699 9.56 13.2099 11.03 12.9999L12.31 10.1199C9.68 10.0399 7.01 10.9899 5 12.9999Z" fill="#0D1A26"/>
</g>
<defs>
<clipPath id="clip0_1_4720">
<rect width="24" height="24" fill="white"/>
</clipPath>
</defs>
</svg>
