<svg width="24" height="24" viewBox="0 0 24 24" fill="none" xmlns="http://www.w3.org/2000/svg">
<g clip-path="url(#clip0_1_1963)">
<path d="M6.03 3.19997C7.15 2.43997 8.51 1.99997 10 1.99997C13.93 1.99997 17 5.06997 17 8.99997C17 10.26 16.62 11.65 15.93 12.9C15.91 12.94 15.88 12.98 15.85 13.03L14.37 11.55C14.77 10.69 15 9.79997 15 8.99997C15 6.19997 12.8 3.99997 10 3.99997C9.08 3.99997 8.24 4.25997 7.5 4.66997L6.03 3.19997ZM17.21 14.38L18.64 15.81C20.11 13.93 21 11.57 21 8.99997C21 5.95997 19.77 3.20997 17.78 1.21997L16.36 2.63997C17.99 4.25997 19 6.50997 19 8.99997C19 11.02 18.33 12.88 17.21 14.38ZM10 6.49997C9.79 6.49997 9.6 6.52997 9.41 6.57997L12.42 9.58997C12.47 9.39997 12.5 9.20997 12.5 8.99997C12.5 7.61997 11.38 6.49997 10 6.49997ZM21.19 21.19L2.81 2.80997L1.39 4.21997L3.52 6.34997C3.19 7.15997 3 8.04997 3 8.99997H5C5 8.63997 5.05 8.28997 5.12 7.94997L11.73 14.56C10.85 15.24 9.95 15.97 9.46 17.46C8.96 18.96 8.46 19.47 7.75 19.84C7.56 19.94 7.29 20 7 20C5.9 20 5 19.1 5 18H3C3 20.21 4.79 22 7 22C7.57 22 8.13 21.88 8.64 21.65C10 20.94 10.77 19.92 11.37 18.1C11.69 17.12 12.27 16.67 13.08 16.05C13.11 16.03 13.13 16.01 13.16 15.99L19.78 22.61L21.19 21.19Z" fill="#0D1A26"/>
</g>
<defs>
<clipPath id="clip0_1_1963">
<rect width="24" height="24" fill="white"/>
</clipPath>
</defs>
</svg>
