<svg width="24" height="24" viewBox="0 0 24 24" fill="none" xmlns="http://www.w3.org/2000/svg">
<g clip-path="url(#clip0_1_4907)">
<path d="M2.81 2.81L1.39 4.22L7 9.83V14.13L4.4 12.65C4.23 12.56 4.06 12.51 3.86 12.51C3.6 12.51 3.36 12.6 3.16 12.77L2 13.88L8.8 21.06C9.37 21.66 10.15 22 10.98 22H17C17.62 22 18.18 21.81 18.66 21.48L19.78 22.6L21.19 21.19L2.81 2.81ZM17 20H11C10.61 20 10.36 19.77 10.25 19.64L6.87 16H9V11.83L17.14 19.97C17.09 19.98 17.05 20 17 20ZM13.83 11H14V3.25C14 2.56 14.56 2 15.25 2C15.94 2 16.5 2.56 16.5 3.25V11H17.5V5.25C17.5 4.56 18.06 4 18.75 4C19.44 4 20 4.56 20 5.25V17.17L18 15.17V13H15.83L13.83 11ZM13 10.17V2.25C13 1.56 12.44 1 11.75 1C11.06 1 10.5 1.56 10.5 2.25V7.67L13 10.17ZM9.5 6.67V4.25C9.5 3.56 8.94 3 8.25 3C7.58 3 7.05 3.53 7.01 4.18L9.5 6.67Z" fill="#0D1A26"/>
</g>
<defs>
<clipPath id="clip0_1_4907">
<rect width="24" height="24" fill="white"/>
</clipPath>
</defs>
</svg>
