<svg width="24" height="24" viewBox="0 0 24 24" fill="none" xmlns="http://www.w3.org/2000/svg">
<g clip-path="url(#clip0_1_4252)">
<path d="M12 2C8.43 2 5.23 3.54 3.01 6L12 22L20.99 6C18.78 3.55 15.57 2 12 2ZM12 17.92L5.51 6.36C7.32 4.85 9.62 4 12 4C14.38 4 16.68 4.85 18.49 6.36L12 17.92ZM9 5.5C8.17 5.5 7.5 6.17 7.5 7C7.5 7.83 8.17 8.5 9 8.5C9.83 8.5 10.5 7.83 10.5 7C10.5 6.17 9.82 5.5 9 5.5ZM10.5 13C10.5 13.83 11.17 14.5 12 14.5C12.82 14.5 13.5 13.83 13.5 13C13.5 12.17 12.82 11.5 12 11.5C11.18 11.5 10.5 12.17 10.5 13Z" fill="#0D1A26"/>
</g>
<defs>
<clipPath id="clip0_1_4252">
<rect width="24" height="24" fill="white"/>
</clipPath>
</defs>
</svg>
