<svg width="24" height="24" viewBox="0 0 24 24" fill="none" xmlns="http://www.w3.org/2000/svg">
<g clip-path="url(#clip0_1_4985)">
<path d="M6.98 4.15C6.99 4.15 6.99 4.14 7 4.14V2H10V4H14V2H17V4.14C18.72 4.59 20 6.14 20 8V17.17L18 15.17V8C18 6.9 17.1 6 16 6H8.83L6.98 4.15ZM14.83 12L16.5 13.67V12H14.83ZM19.78 22.61L18.93 21.76C18.65 21.91 18.34 22 18 22H6C4.9 22 4 21.1 4 20V8C4 7.64 4.06 7.31 4.15 6.98L1.39 4.22L2.8 2.81L21.18 21.19L19.78 22.61ZM17.17 20L11.17 14H7.5V12H9.17L6 8.83V20H17.17Z" fill="#0D1A26"/>
</g>
<defs>
<clipPath id="clip0_1_4985">
<rect width="24" height="24" fill="white"/>
</clipPath>
</defs>
</svg>
