<svg width="24" height="24" viewBox="0 0 24 24" fill="none" xmlns="http://www.w3.org/2000/svg">
<g clip-path="url(#clip0_1_2177)">
<path d="M4.34 2.92993L2.93 4.33993L7.29 8.69993L7 8.99993H3V14.9999H7L12 19.9999V13.4099L16.18 17.5899C15.53 18.0799 14.8 18.4699 14 18.6999V20.7599C15.34 20.4599 16.57 19.8399 17.61 19.0099L19.66 21.0599L21.07 19.6499L4.34 2.92993ZM10 15.1699L7.83 12.9999H5V10.9999H7.83L8.71 10.1199L10 11.4099V15.1699ZM19 11.9999C19 12.8199 18.85 13.6099 18.59 14.3399L20.12 15.8699C20.68 14.6999 21 13.3899 21 11.9999C21 7.71993 18.01 4.13993 14 3.22993V5.28993C16.89 6.14993 19 8.82993 19 11.9999ZM12 3.99993L10.12 5.87993L12 7.75993V3.99993ZM16.5 11.9999C16.5 10.2299 15.48 8.70993 14 7.96993V9.75993L16.48 12.2399C16.49 12.1599 16.5 12.0799 16.5 11.9999Z" fill="#0D1A26"/>
</g>
<defs>
<clipPath id="clip0_1_2177">
<rect width="24" height="24" fill="white"/>
</clipPath>
</defs>
</svg>
