<svg width="24" height="24" viewBox="0 0 24 24" fill="none" xmlns="http://www.w3.org/2000/svg">
<g clip-path="url(#clip0_1_1597)">
<path d="M20 4H6.83L8.83 6H20V17.17L21.76 18.93C21.91 18.65 22 18.34 22 18V6C22 4.9 21.1 4 20 4Z" fill="#0D1A26"/>
<path d="M18 10H12.83L14.83 12H18V10Z" fill="#0D1A26"/>
<path d="M1.04 3.86995L2.24 5.06995C2.09 5.34995 2 5.65995 2 5.99995V18C2 19.1 2.9 20 4 20H17.17L20.13 22.9599L21.54 21.5499L2.45 2.44995L1.04 3.86995ZM4 6.82995L7.17 9.99995H6V12H8V10.83L11.17 14H6V16H13.17L15.17 18H4V6.82995Z" fill="#0D1A26"/>
</g>
<defs>
<clipPath id="clip0_1_1597">
<rect width="24" height="24" fill="white"/>
</clipPath>
</defs>
</svg>
