<svg width="24" height="24" viewBox="0 0 24 24" fill="none" xmlns="http://www.w3.org/2000/svg">
<g clip-path="url(#clip0_1_3911)">
<path d="M15.07 1.01001H9.07V3.01001H15.07V1.01001ZM11.07 14.01H13.07V8.01001H11.07V14.01ZM19.1 7.39001L20.52 5.97001C20.09 5.46001 19.62 4.98001 19.11 4.56001L17.69 5.98001C16.14 4.74001 14.19 4.00001 12.07 4.00001C7.1 4.00001 3.07 8.03001 3.07 13C3.07 17.97 7.09 22 12.07 22C17.05 22 21.07 17.97 21.07 13C21.07 10.89 20.33 8.94001 19.1 7.39001ZM12.07 20.01C8.2 20.01 5.07 16.88 5.07 13.01C5.07 9.14001 8.2 6.01001 12.07 6.01001C15.94 6.01001 19.07 9.14001 19.07 13.01C19.07 16.88 15.94 20.01 12.07 20.01Z" fill="#0D1A26"/>
</g>
<defs>
<clipPath id="clip0_1_3911">
<rect width="24" height="24" fill="white"/>
</clipPath>
</defs>
</svg>
