<svg width="24" height="24" viewBox="0 0 24 24" fill="none" xmlns="http://www.w3.org/2000/svg">
<g clip-path="url(#clip0_1_5066)">
<path d="M16 6H14V4H16V6ZM18 7H16V9H18V7ZM19 9H21V7H19V9ZM19 4H17V6H19V4ZM15 7H13V9H15V7ZM19 10H17V12H19V10ZM16 10H14V12H16V10ZM13 4H11V6H13V4ZM20 15.82V19.97C20 20.53 19.53 21 18.97 20.97C16.08 20.8 13.37 19.94 11 18.57C8.27 16.99 6.01 14.73 4.43 12C3.05 9.63 2.2 6.92 2.03 4.03C2 3.47 2.47 3 3.03 3H7.18C7.66 3 8.07 3.34 8.16 3.8L8.9 7.48C8.97 7.81 8.86 8.15 8.63 8.38L6.1 10.9C7.53 13.4 9.6 15.47 12.1 16.9L14.62 14.38C14.86 14.14 15.2 14.04 15.52 14.11L19.19 14.84C19.66 14.93 20 15.34 20 15.82ZM5.18 8.99L6.83 7.34L6.36 5H4.13C4.3 6.37 4.66 7.71 5.18 8.99ZM18 16.64L15.66 16.17L14.01 17.82C15.29 18.34 16.64 18.69 18 18.87V16.64ZM20 4V6H22V4H20ZM20 12H22V10H20V12ZM13 10H11V12H13V10Z" fill="#0D1A26"/>
</g>
<defs>
<clipPath id="clip0_1_5066">
<rect width="24" height="24" fill="white"/>
</clipPath>
</defs>
</svg>
