<svg width="24" height="24" viewBox="0 0 24 24" fill="none" xmlns="http://www.w3.org/2000/svg">
<g clip-path="url(#clip0_1_4665)">
<path d="M21.71 11.2901L12.71 2.29006C12.32 1.90006 11.69 1.90006 11.3 2.29006L8.21 5.38006L9.62 6.79006L12 4.42006L19.58 12.0001L17.2 14.3801L18.61 15.7901L21.7 12.7001C22.1 12.3301 22.1 11.7001 21.71 11.2901Z" fill="#0D1A26"/>
<path d="M13 7.5V10.17L15.17 12.34L16.5 11L13 7.5Z" fill="#0D1A26"/>
<path d="M1.39 4.22006L5.38 8.21006L2.29 11.3001C1.9 11.6901 1.9 12.3201 2.29 12.7101L11.29 21.7101C11.68 22.1001 12.31 22.1001 12.7 21.7101L15.79 18.6201L19.78 22.6101L21.19 21.2001L2.81 2.81006L1.39 4.22006ZM8.03 10.8501C8.02 10.9001 7.99 10.9501 7.99 11.0001V15.0001H9.99V12.8201L14.37 17.2001L12 19.5801L4.42 12.0001L6.8 9.62006L8.03 10.8501Z" fill="#0D1A26"/>
</g>
<defs>
<clipPath id="clip0_1_4665">
<rect width="24" height="24" fill="white"/>
</clipPath>
</defs>
</svg>
