<svg width="24" height="24" viewBox="0 0 24 24" fill="none" xmlns="http://www.w3.org/2000/svg">
<g clip-path="url(#clip0_1_3694)">
<path d="M8 3.99989V4.88989L10 6.88989V3.99989H14V7.99989H11.11L13.11 9.99989H14V10.8899L16 12.8899V9.99989H20V13.9999H17.11L19.11 15.9999H20V16.8899L22 18.8899V3.99989C22 2.89989 21.1 1.99989 20 1.99989H5.11L7.11 3.99989H8ZM16 3.99989H20V7.99989H16V3.99989ZM1.41 1.13989L0 2.54989L2 4.54989V19.9999C2 21.0999 2.9 21.9999 4 21.9999H19.45L21.46 24.0099L22.87 22.5999L1.41 1.13989ZM10 12.5499L11.45 13.9999H10V12.5499ZM4 6.54989L5.45 7.99989H4V6.54989ZM8 19.9999H4V15.9999H8V19.9999ZM8 13.9999H4V9.99989H7.45L8 10.5499V13.9999ZM14 19.9999H10V15.9999H13.45L14 16.5499V19.9999ZM16 19.9999V18.5499L17.45 19.9999H16Z" fill="#0D1A26"/>
</g>
<defs>
<clipPath id="clip0_1_3694">
<rect width="24" height="24" fill="white"/>
</clipPath>
</defs>
</svg>
