<svg width="24" height="24" viewBox="0 0 24 24" fill="none" xmlns="http://www.w3.org/2000/svg">
<g clip-path="url(#clip0_1_2196)">
<path d="M12 1.94995C6.48 1.94995 2 6.42995 2 11.95C2 17.47 6.48 21.95 12 21.95H17V19.95H12C7.66 19.95 4 16.29 4 11.95C4 7.60995 7.66 3.94995 12 3.94995C16.34 3.94995 20 7.60995 20 11.95V13.38C20 14.17 19.29 14.95 18.5 14.95C17.71 14.95 17 14.17 17 13.38V11.95C17 9.18995 14.76 6.94995 12 6.94995C9.24 6.94995 7 9.18995 7 11.95C7 14.71 9.24 16.95 12 16.95C13.38 16.95 14.64 16.39 15.54 15.48C16.19 16.37 17.31 16.95 18.5 16.95C20.47 16.95 22 15.35 22 13.38V11.95C22 6.42995 17.52 1.94995 12 1.94995ZM12 14.95C10.34 14.95 9 13.61 9 11.95C9 10.29 10.34 8.94995 12 8.94995C13.66 8.94995 15 10.29 15 11.95C15 13.61 13.66 14.95 12 14.95Z" fill="#0D1A26"/>
</g>
<defs>
<clipPath id="clip0_1_2196">
<rect width="24" height="24" fill="white"/>
</clipPath>
</defs>
</svg>
