<svg width="24" height="24" viewBox="0 0 24 24" fill="none" xmlns="http://www.w3.org/2000/svg">
<g clip-path="url(#clip0_1_4351)">
<path d="M8.5 13C9.33 13 10 13.67 10 14.5C10 15.33 9.33 16 8.5 16C7.67 16 7 15.33 7 14.5C7 13.67 7.67 13 8.5 13ZM19.78 22.61L18.14 20.97C18.09 20.98 18.05 21 18 21H17C16.45 21 16 20.55 16 20V19H8V20C8 20.55 7.55 21 7 21H6C5.45 21 5 20.55 5 20V18.22C4.39 17.67 4 16.88 4 16V6.83L1.39 4.22L2.8 2.81L21.18 21.19L19.78 22.61ZM6 8.83V10H7.17L6 8.83ZM14.17 17L9.17 12H6V16C6 16.37 6.21 16.62 6.34 16.73L6.63 17H14.17ZM12 4C15.69 4 17.11 4.46 17.66 4.99H7.82L9.82 6.99H18V10H12.83L14.83 12H18V15.17L19.81 16.98C19.92 16.67 20 16.35 20 16V6C20 2.5 16.42 2 12 2C9.48 2 7.24 2.16 5.78 2.95L7.31 4.48C8.17 4.2 9.6 4 12 4Z" fill="#0D1A26"/>
</g>
<defs>
<clipPath id="clip0_1_4351">
<rect width="24" height="24" fill="white"/>
</clipPath>
</defs>
</svg>
