<svg width="24" height="24" viewBox="0 0 24 24" fill="none" xmlns="http://www.w3.org/2000/svg">
<g clip-path="url(#clip0_1_5468)">
<path d="M20.31 3.69C19.99 3.36 18.37 3 16.26 3C13.23 3 9.17 3.75 6.46 6.46C1.87 11.05 2.9 19.52 3.69 20.31C4.01 20.64 5.63 21 7.74 21C10.77 21 14.83 20.25 17.54 17.54C22.13 12.95 21.1 4.48 20.31 3.69ZM7.74 19C6.6 19 5.72 18.88 5.21 18.77C5.03 17.98 4.91 16.56 5.04 14.94L9.05 18.95C8.53 18.99 8.08 19 7.74 19ZM16.13 16.13C14.8 17.46 13.07 18.18 11.47 18.57L5.43 12.53C5.85 10.85 6.59 9.16 7.88 7.88C9.2 6.56 10.93 5.84 12.52 5.45L18.57 11.5C18.15 13.17 17.4 14.85 16.13 16.13ZM18.96 9.09L14.93 5.06C15.45 5.01 15.91 5 16.26 5C17.4 5 18.28 5.12 18.79 5.23C18.97 6.02 19.09 7.45 18.96 9.09Z" fill="#0D1A26"/>
<path d="M14.0999 8.49987L8.49965 14.1001L9.89971 15.5002L15.4999 9.89992L14.0999 8.49987Z" fill="#0D1A26"/>
</g>
<defs>
<clipPath id="clip0_1_5468">
<rect width="24" height="24" fill="white"/>
</clipPath>
</defs>
</svg>
