<svg width="24" height="24" viewBox="0 0 24 24" fill="none" xmlns="http://www.w3.org/2000/svg">
<g clip-path="url(#clip0_1_3648)">
<path d="M11 4.07005V2.05005C8.99 2.25005 7.16 3.05005 5.68 4.26005L7.1 5.69005C8.21 4.83005 9.54 4.25005 11 4.07005ZM18.32 4.26005C16.84 3.05005 15.01 2.25005 13 2.05005V4.07005C14.46 4.25005 15.79 4.83005 16.9 5.69005L18.32 4.26005ZM19.93 11H21.95C21.75 8.99005 20.95 7.16005 19.74 5.68005L18.31 7.10005C19.17 8.21005 19.75 9.54005 19.93 11ZM5.69 7.10005L4.26 5.68005C3.05 7.16005 2.25 8.99005 2.05 11H4.07C4.25 9.54005 4.83 8.21005 5.69 7.10005ZM4.07 13H2.05C2.25 15.01 3.05 16.84 4.26 18.32L5.69 16.89C4.83 15.79 4.25 14.46 4.07 13ZM15 12C15 10.34 13.66 9.00005 12 9.00005C10.34 9.00005 9 10.34 9 12C9 13.66 10.34 15 12 15C13.66 15 15 13.66 15 12ZM18.31 16.9L19.74 18.33C20.95 16.85 21.75 15.01 21.95 13.01H19.93C19.75 14.46 19.17 15.79 18.31 16.9ZM13 19.93V21.9501C15.01 21.75 16.84 20.9501 18.32 19.74L16.89 18.31C15.79 19.17 14.46 19.75 13 19.93ZM5.68 19.74C7.16 20.9501 9 21.75 11 21.9501V19.93C9.54 19.75 8.21 19.17 7.1 18.31L5.68 19.74Z" fill="#0D1A26"/>
</g>
<defs>
<clipPath id="clip0_1_3648">
<rect width="24" height="24" fill="white"/>
</clipPath>
</defs>
</svg>
