<svg width="24" height="24" viewBox="0 0 24 24" fill="none" xmlns="http://www.w3.org/2000/svg">
<g clip-path="url(#clip0_1_5265)">
<path d="M19.78 17.51C17.31 17.51 13.21 16.18 11.1 12.08C8.77 7.57001 10.6 3.60001 11.63 2.01001C6.27 2.20001 1.98 6.59001 1.98 12C1.98 12.14 2 12.28 2 12.42C2.61 12.16 3.28 12 3.98 12C3.98 8.91001 5.71 6.23001 8.28 4.90001C7.78 7.09001 7.74 9.94001 9.32 13C10.89 16.04 13.5 17.95 16.12 18.86C14.89 19.6 13.47 20.01 11.99 20.01C11.49 20.01 10.99 19.96 10.51 19.87C10.14 20.57 9.57 21.14 8.87 21.51C9.85 21.83 10.9 22.01 11.98 22.01C15.48 22.01 18.56 20.21 20.35 17.49C20.18 17.5 19.98 17.51 19.78 17.51Z" fill="#0D1A26"/>
<path d="M7 16H6.82C6.4 14.84 5.3 14 4 14C2.34 14 1 15.34 1 17C1 18.66 2.34 20 4 20C4.62 20 6.49 20 7 20C8.1 20 9 19.1 9 18C9 16.9 8.1 16 7 16Z" fill="#0D1A26"/>
</g>
<defs>
<clipPath id="clip0_1_5265">
<rect width="24" height="24" fill="white"/>
</clipPath>
</defs>
</svg>
