<svg width="24" height="24" viewBox="0 0 24 24" fill="none" xmlns="http://www.w3.org/2000/svg">
<g clip-path="url(#clip0_1_787)">
<path d="M10.54 14.5301L8.41 12.4001L7.35 13.4601L10.53 16.6401L16.53 10.6401L15.47 9.58006L10.54 14.5301ZM17.337 1.81006L21.944 5.65506L20.664 7.19006L16.054 3.34706L17.337 1.81006ZM6.663 1.81006L7.945 3.34606L3.337 7.19006L2.057 5.65406L6.663 1.81006ZM12 4.00006C7.03 4.00006 3 8.03006 3 13.0001C3 17.9701 7.03 22.0001 12 22.0001C16.97 22.0001 21 17.9701 21 13.0001C21 8.03006 16.97 4.00006 12 4.00006ZM12 20.0001C8.14 20.0001 5 16.8601 5 13.0001C5 9.14006 8.14 6.00006 12 6.00006C15.86 6.00006 19 9.14006 19 13.0001C19 16.8601 15.86 20.0001 12 20.0001Z" fill="#0D1A26"/>
</g>
<defs>
<clipPath id="clip0_1_787">
<rect width="24" height="24" fill="white"/>
</clipPath>
</defs>
</svg>
