<svg width="24" height="24" viewBox="0 0 24 24" fill="none" xmlns="http://www.w3.org/2000/svg">
<g clip-path="url(#clip0_1_1605)">
<path d="M12.5 10C12.5 8.35001 11.15 7.00001 9.5 7.00001C7.85 7.00001 6.5 8.35001 6.5 10C6.5 11.65 7.85 13 9.5 13C11.15 13 12.5 11.65 12.5 10ZM9.5 11C8.95 11 8.5 10.55 8.5 10C8.5 9.45001 8.95 9.00001 9.5 9.00001C10.05 9.00001 10.5 9.45001 10.5 10C10.5 10.55 10.05 11 9.5 11ZM16 13C17.11 13 18 12.11 18 11C18 9.89001 17.11 9.00001 16 9.00001C14.89 9.00001 13.99 9.89001 14 11C14 12.11 14.89 13 16 13ZM11.99 2.01001C6.47 2.01001 1.99 6.49001 1.99 12.01C1.99 17.53 6.47 22.01 11.99 22.01C17.51 22.01 21.99 17.53 21.99 12.01C21.99 6.49001 17.51 2.01001 11.99 2.01001ZM5.84 17.12C6.52 16.58 8.11 16.01 9.5 16.01C9.57 16.01 9.65 16.02 9.73 16.02C9.97 15.38 10.4 14.73 11.03 14.16C10.47 14.06 9.94 14 9.5 14C8.2 14 6.11 14.45 4.77 15.43C4.27 14.39 3.99 13.23 3.99 12C3.99 7.59001 7.58 4.00001 11.99 4.00001C16.4 4.00001 19.99 7.59001 19.99 12C19.99 13.2 19.72 14.34 19.24 15.37C18.24 14.78 16.88 14.5 16 14.5C14.48 14.5 11.5 15.31 11.5 17.2V19.98C9.23 19.85 7.21 18.77 5.84 17.12Z" fill="#0D1A26"/>
</g>
<defs>
<clipPath id="clip0_1_1605">
<rect width="24" height="24" fill="white"/>
</clipPath>
</defs>
</svg>
