<svg width="24" height="24" viewBox="0 0 24 24" fill="none" xmlns="http://www.w3.org/2000/svg">
<g clip-path="url(#clip0_1_3793)">
<path d="M14 7.00011H18V3.00011H12V7.61011L14 9.61011V7.00011ZM12 10.4401L4.41 2.86011L3 4.27011L12 13.2701V13.5501C11.06 13.0101 9.9 12.8001 8.67 13.2301C7.33 13.7101 6.3 14.9001 6.06 16.3001C5.6 19.0401 7.92 21.3801 10.65 20.9501C12.61 20.6401 14 18.8401 14 16.8501V15.2701L19.73 21.0001L21.14 19.5901L12 10.4401ZM10 19.0001C8.9 19.0001 8 18.1001 8 17.0001C8 15.9001 8.9 15.0001 10 15.0001C11.1 15.0001 12 15.9001 12 17.0001C12 18.1001 11.1 19.0001 10 19.0001Z" fill="#0D1A26"/>
</g>
<defs>
<clipPath id="clip0_1_3793">
<rect width="24" height="24" fill="white"/>
</clipPath>
</defs>
</svg>
