<svg width="24" height="24" viewBox="0 0 24 24" fill="none" xmlns="http://www.w3.org/2000/svg">
<g clip-path="url(#clip0_1_4171)">
<path d="M12 4.53011L17.74 9.00011L15.85 10.4701L17.28 11.8901L21 9.00011L12 2.00011L9.41 4.02011L10.83 5.44011L12 4.53011ZM21 14.0701L19.37 12.8001L18.7 13.3201L20.13 14.7501L21 14.0701ZM3.41 0.860107L2 2.27011L6.22 6.49011L3 9.00011L12 16.0001L14.1 14.3701L15.52 15.7901L11.99 18.5401L4.62 12.8101L3 14.0701L12 21.0701L16.95 17.2201L20.73 21.0001L22.14 19.5901L3.41 0.860107ZM12 13.4701L6.26 9.00011L7.65 7.92011L12.67 12.9401L12 13.4701Z" fill="#0D1A26"/>
</g>
<defs>
<clipPath id="clip0_1_4171">
<rect width="24" height="24" fill="white"/>
</clipPath>
</defs>
</svg>
