<svg width="24" height="24" viewBox="0 0 24 24" fill="none" xmlns="http://www.w3.org/2000/svg">
<g clip-path="url(#clip0_1_5423)">
<path d="M7.32 10.56L8.38 9.5L7.32 8.44L8.38 7.38L10.5 9.5L8.38 11.62L7.32 10.56ZM4.5 9C4.53 9 4.55 9.01 4.58 9.01C5.77 6.07 8.64 4 12 4C14.19 4 16.16 4.88 17.61 6.3C17.76 5.7 18.06 5.01 18.42 4.34C16.68 2.88 14.44 2 11.99 2C7.11 2 3.05 5.51 2.18 10.14C2.74 9.44 3.59 9 4.5 9ZM21 10.5C20.58 10.5 20.18 10.41 19.81 10.28C19.93 10.83 20 11.41 20 12C20 16.42 16.42 20 12 20C8.64 20 5.77 17.93 4.58 14.99C4.55 14.99 4.53 15 4.5 15C3.98 15 3.46 14.86 3 14.6C2.68 14.42 2.41 14.18 2.18 13.9C3.07 18.51 7.11 22 11.98 22C17.52 22 22 17.52 22 12C22 11.45 21.94 10.91 21.86 10.38C21.58 10.45 21.3 10.5 21 10.5ZM21 3C21 3 19 5.9 19 7C19 8.1 19.9 9 21 9C22.1 9 23 8.1 23 7C23 5.9 21 3 21 3ZM15.62 7.38L13.5 9.5L15.62 11.62L16.68 10.56L15.62 9.5L16.68 8.44L15.62 7.38ZM8.56 17C9.25 15.81 10.53 15 12 15C13.47 15 14.75 15.81 15.44 17H17.12C16.32 14.95 14.33 13.5 12 13.5C11.13 13.5 10.3 13.7 9.57 14.07L5.99 12C5.99 11.48 5.73 10.98 5.25 10.71C4.53 10.3 3.62 10.54 3.2 11.26C2.79 11.98 3.03 12.89 3.75 13.31C4.23 13.59 4.8 13.56 5.24 13.31L8.21 15.03C7.64 15.56 7.18 16.24 6.88 17H8.56Z" fill="#0D1A26"/>
</g>
<defs>
<clipPath id="clip0_1_5423">
<rect width="24" height="24" fill="white"/>
</clipPath>
</defs>
</svg>
