<svg width="24" height="24" viewBox="0 0 24 24" fill="none" xmlns="http://www.w3.org/2000/svg">
<g clip-path="url(#clip0_1_5451)">
<path d="M15.04 12.79L6.54 4.29C6.35 4.1 6.09 4 5.83 4C5.57 4 5.32 4.1 5.13 4.29L2.29 7.13C1.9 7.52 1.9 8.16 2.29 8.55L10.79 17.05C10.99 17.25 11.24 17.34 11.5 17.34C11.76 17.34 12.01 17.24 12.21 17.05L15.04 14.22C15.43 13.82 15.43 13.18 15.04 12.79ZM11.5 14.92L4.41 7.83L5.83 6.41L12.92 13.5L11.5 14.92Z" fill="#0D1A26"/>
<path d="M15.7554 16.3419L14.3412 17.7561L18.5838 21.9987L19.998 20.5845L15.7554 16.3419Z" fill="#0D1A26"/>
<path d="M18.5 2C16.57 2 15 3.57 15 5.5C15 7.43 16.57 9 18.5 9C20.43 9 22 7.43 22 5.5C22 3.57 20.43 2 18.5 2ZM18.5 7C17.67 7 17 6.33 17 5.5C17 4.67 17.67 4 18.5 4C19.33 4 20 4.67 20 5.5C20 6.33 19.33 7 18.5 7Z" fill="#0D1A26"/>
</g>
<defs>
<clipPath id="clip0_1_5451">
<rect width="24" height="24" fill="white"/>
</clipPath>
</defs>
</svg>
