<svg width="24" height="24" viewBox="0 0 24 24" fill="none" xmlns="http://www.w3.org/2000/svg">
<g clip-path="url(#clip0_1_4190)">
<path d="M17 5.00005C17.83 5.00005 18.5 4.33005 18.5 3.50005C18.5 2.50005 17 0.800049 17 0.800049C17 0.800049 15.5 2.50005 15.5 3.50005C15.5 4.33005 16.17 5.00005 17 5.00005ZM12 5.00005C12.83 5.00005 13.5 4.33005 13.5 3.50005C13.5 2.50005 12 0.800049 12 0.800049C12 0.800049 10.5 2.50005 10.5 3.50005C10.5 4.33005 11.17 5.00005 12 5.00005ZM7 5.00005C7.83 5.00005 8.5 4.33005 8.5 3.50005C8.5 2.50005 7 0.800049 7 0.800049C7 0.800049 5.5 2.50005 5.5 3.50005C5.5 4.33005 6.17 5.00005 7 5.00005ZM18.92 8.01005C18.72 7.42005 18.16 7.00005 17.5 7.00005H6.5C5.84 7.00005 5.29 7.42005 5.08 8.01005L3 14V22C3 22.55 3.45 23 4 23H5C5.55 23 6 22.55 6 22V21H18V22C18 22.55 18.45 23 19 23H20C20.55 23 21 22.55 21 22V14L18.92 8.01005ZM6.85 9.00005H17.14L18.18 12H5.81L6.85 9.00005ZM19 19H5V14.34L5.12 14H18.89L19 14.34V19Z" fill="#0D1A26"/>
<path d="M7.5 18C8.32843 18 9 17.3284 9 16.5C9 15.6716 8.32843 15 7.5 15C6.67157 15 6 15.6716 6 16.5C6 17.3284 6.67157 18 7.5 18Z" fill="#0D1A26"/>
<path d="M16.5 18C17.3284 18 18 17.3284 18 16.5C18 15.6716 17.3284 15 16.5 15C15.6716 15 15 15.6716 15 16.5C15 17.3284 15.6716 18 16.5 18Z" fill="#0D1A26"/>
</g>
<defs>
<clipPath id="clip0_1_4190">
<rect width="24" height="24" fill="white"/>
</clipPath>
</defs>
</svg>
