<svg width="24" height="24" viewBox="0 0 24 24" fill="none" xmlns="http://www.w3.org/2000/svg">
<g clip-path="url(#clip0_1_2301)">
<path d="M12 5.10002V9.15002L19.4 16.55C20.55 13.67 19.99 10.27 17.65 7.94002L12 2.27002L8.56 5.71002L9.97 7.12002L12 5.10002ZM4.4 4.37002L2.99 5.78002L5.77 8.56002C3.23 11.7 3.42 16.31 6.34 19.24C7.9 20.8 9.95 21.58 12 21.58C13.78 21.58 15.56 20.99 17.02 19.81L19.72 22.51L21.13 21.1L4.4 4.37002ZM12 19.59C10.4 19.59 8.89 18.97 7.76 17.83C6.62 16.69 6 15.19 6 13.59C6 12.27 6.43 11.03 7.21 10L12 14.79V19.59Z" fill="#0D1A26"/>
</g>
<defs>
<clipPath id="clip0_1_2301">
<rect width="24" height="24" fill="white"/>
</clipPath>
</defs>
</svg>
