<svg width="24" height="24" viewBox="0 0 24 24" fill="none" xmlns="http://www.w3.org/2000/svg">
<g clip-path="url(#clip0_1_4860)">
<path d="M21 19.57L19.573 20.998L13.131 14.556L14.561 13.128L21 19.57ZM13.12 3C10.54 3 7.96 3.98 5.98 5.95L5.97 5.96C2.02 9.91 2.02 16.32 5.97 20.27L20.27 5.96C18.3 3.99 15.71 3 13.12 3ZM6.14 17.27C5.4 16.03 5 14.61 5 13.12C5 12.19 5.16 11.3 5.46 10.45C5.65 12.36 6.35 14.24 7.53 15.89L6.14 17.27ZM8.98 14.43C7.63 12.38 7.12 9.93 7.6 7.6C8.18 7.48 8.76 7.42 9.35 7.42C11.15 7.42 12.9 7.97 14.43 8.98L8.98 14.43ZM10.45 5.46C11.3 5.16 12.19 5 13.12 5C14.61 5 16.03 5.4 17.27 6.14L15.88 7.53C14.23 6.35 12.36 5.65 10.45 5.46Z" fill="#0D1A26"/>
</g>
<defs>
<clipPath id="clip0_1_4860">
<rect width="24" height="24" fill="white"/>
</clipPath>
</defs>
</svg>
