<svg width="24" height="24" viewBox="0 0 24 24" fill="none" xmlns="http://www.w3.org/2000/svg">
<g clip-path="url(#clip0_1_2339)">
<path d="M17 1H7C5.9 1 5.01 1.85 5.01 2.95V20.95C5.01 22.05 5.9 23 7 23H17C18.1 23 19 22.05 19 20.95V2.95C19 1.85 18.1 1 17 1ZM17 19H7V5H17V19ZM12.8 13.24V14.99L16 12L12.8 9.02V10.72C9.69 11.15 8.45 13.28 8 15.42C9.11 13.92 10.58 13.24 12.8 13.24Z" fill="#0D1A26"/>
</g>
<defs>
<clipPath id="clip0_1_2339">
<rect width="24" height="24" fill="white"/>
</clipPath>
</defs>
</svg>
